#!OML:ASF E:\acrobat2\Project_11_07_03\Capture day 1\Session 1\Acrobat.ASF
:FULLY-SPECIFIED
:DEGREES
1019
root 11.1529 4.15172 10.6304 -82.5439 2.91446 168.791
lowerback -14.529611163173533 -6.013469568410754 -1.8523714990332418
upperback -7.114094408290649 -8.614064538076109 8.274718962791647
thorax 2.1389723484007352 -4.368946589702535 8.505275210171545
lowerneck -4.180209664359843 -17.355292230121627 14.426682572249542
upperneck -31.208204565620232 -22.793246011073762 -0.895425463009462
head -11.30831890776636 -10.34193952021878 -0.5194667032544484
rclavicle 2.38542e-15 -1.58034e-14
rhumerus 12.109946814673966 -36.83071664230093 -2.6426312992018506
rradius 112.57146439618431
rwrist -26.820855623700417
rhand -24.28940961401546 -39.45002601944743
rfingers 7.03807509752281
rthumb 1.9830557223449816 -69.46155353822819
lclavicle 2.38542e-15 -1.58034e-14
lhumerus -0.848617428286393 41.755107597434986 -3.1555054654050525
lradius 102.65885312196181
lwrist 28.551820422324628
lhand -16.536142086851193 -31.746632213991195
lfingers 7.035817228622555
lthumb 9.755592294792113 -2.1223190371471734
rfemur 1.6290152500306818 4.255249652116414 -1.051706779164466
rtibia 56.08671066161993
rfoot 34.6088375641767 -18.22230673345784
rtoes 32.27050380034514
lfemur -4.55558733688047 -6.860502489643522 -0.2783394668823189
ltibia 53.52754481471764
lfoot 31.976793384762612 4.716970406508903
ltoes 4.47688
1020
root 11.1529 4.15172 10.6304 -82.5439 2.91446 168.791
lowerback -14.485844068621175 -6.081424049884813 -1.8114503734628413
upperback -7.07845924923526 -8.605124105360328 8.218838912396183
thorax 2.234091251964312 -4.309384418161305 8.508595113561423
lowerneck -4.235570508310509 -17.325590946501777 14.405662174221202
upperneck -31.19303537306262 -22.82899684920474 -0.8692358907551927
head -11.396561884525061 -10.382218330294178 -0.4258860412242706
rclavicle 2.38542e-15 -1.58034e-14
rhumerus 7.358878326203648 -38.76685043896847 2.0743975135112684
rradius 108.33000988677178
rwrist -26.73299793727336
rhand -24.240641190282037 -39.46679156689442
rfingers 6.988546717978777
rthumb 1.8847517748377154 -69.38580995858642
lclavicle 2.38542e-15 -1.58034e-14
lhumerus -3.6211182446949097 44.94924870356296 1.4665057864031277
lradius 97.37773084098109
lwrist 28.486123841360172
lhand -16.462585873964194 -31.651877166759256
lfingers 7.076621857088569
lthumb 9.75736704400769 -2.1467252702784516
rfemur 1.4759461345933036 3.961011409411119 -0.877553764917602
rtibia 55.416211872623094
rfoot 34.30295620916189 -18.617882510616326
rtoes 32.43646132862382
lfemur -4.759514663797319 -6.86070256740672 -0.4529938120063226
ltibia 57.24375988895319
lfoot 32.37647165439739 4.235063390149374
ltoes 4.47688
1021
root 11.1529 4.15172 10.6304 -82.5439 2.91446 168.791
lowerback -14.545673466333023 -6.11587590886556 -1.714040429877236
upperback -7.021919174089384 -8.637304975790142 8.161444871672346
thorax 2.2689822659090644 -4.241844204130512 8.595032607940148
lowerneck -4.266800545352345 -17.249112306008485 14.443084210651934
upperneck -31.196135628540123 -22.731895203239578 -0.922307803780985
head -11.351468847276807 -10.46528228421088 -0.4919472128653931
rclavicle 2.38542e-15 -1.58034e-14
rhumerus 9.824805027252054 -41.637168489054226 4.665559340675671
rradius 102.92917456624278
rwrist -26.66477149813219
rhand -24.267019590400906 -39.49873451989402
rfingers 6.946789775461005
rthumb 1.958235739555096 -69.36501345280809
lclavicle 2.38542e-15 -1.58034e-14
lhumerus -0.8952735016617703 48.821899750732584 -1.8041861683877785
lradius 92.17304894470422
lwrist 28.406978840963095
lhand -16.55475831424481 -31.737238482992787
lfingers 7.149855528561884
lthumb 9.814990333752736 -2.081024075984629
rfemur 1.316843598709887 4.076197441970155 -0.5956501632848472
rtibia 54.19660816100697
rfoot 34.373737734760915 -18.894168437867556
rtoes 32.01820459097622
lfemur -4.992791020815583 -6.469934439551414 -0.3885469787661252
ltibia 61.494431910037925
lfoot 32.334240913438634 4.012246156257072
ltoes 4.47688
1022
root 11.1529 4.15172 10.6304 -82.5439 2.91446 168.791
lowerback -14.488270533620957 -6.050322277536414 -1.8115640809799027
upperback -6.987836846284598 -8.718968351266838 8.08446537135793
thorax 2.3459942799849967 -4.333839496752479 8.54295928091365
lowerneck -4.169168845631139 -17.264909588522432 14.366195846770388
upperneck -31.262658941047857 -22.78361114622001 -0.8735065204735832
head -11.430902018079546 -10.383129400555013 -0.5162917587565479
rclavicle 2.38542e-15 -1.58034e-14
rhumerus 12.646389246421318 -37.54494120754711 2.6057951901611482
rradius 98.91553402207828
rwrist -26.669369478937735
rhand -24.346993761610815 -39.46832447999614
rfingers 6.854713818143746
rthumb 1.8603369698588303 -69.26849672749799
lclavicle 2.38542e-15 -1.58034e-14
lhumerus -2.1219743413682632 49.787606182617 -2.305740822086801
lradius 87.9199255004285
lwrist 28.319571798972625
lhand -16.472079910811622 -31.643275827625164
lfingers 7.2438148294611775
lthumb 9.737262795778115 -2.1379854219774095
rfemur 1.4346504787214427 4.556150327860232 -0.5527369658001317
rtibia 56.0785062414841
rfoot 34.53557216363627 -19.13508244601391
rtoes 32.059806853889185
lfemur -5.185469903003069 -6.723553243466322 -0.8071782133823374
ltibia 60.09049829221455
lfoot 32.817617630658034 3.960148396790368
ltoes 4.47688
